<?xml version="1.0" standalone="no"?>
<!DOCTYPE svg PUBLIC "-//W3C//DTD SVG 20010904//EN"
 "http://www.w3.org/TR/2001/REC-SVG-20010904/DTD/svg10.dtd">
<svg version="1.0" xmlns="http://www.w3.org/2000/svg"
 width="896.000000pt" height="896.000000pt" viewBox="0 0 896.000000 896.000000"
 preserveAspectRatio="xMidYMid meet">

<g transform="translate(0.000000,896.000000) scale(0.100000,-0.100000)"
fill="#000000" stroke="none">
<path d="M4210 7939 c-428 -28 -774 -114 -1128 -280 l-104 -48 -86 25 c-151
44 -450 48 -656 9 -167 -31 -449 -136 -503 -187 -50 -46 -41 -122 37 -329 52
-138 135 -306 205 -415 l45 -70 -19 -67 c-44 -153 -55 -252 -55 -487 0 -232
14 -378 55 -580 17 -85 58 -240 75 -284 5 -14 0 -15 -42 -9 -26 3 -63 16 -81
29 -74 50 -173 64 -298 42 -14 -2 -24 7 -37 35 -42 86 -100 67 -120 -40 l-11
-60 -196 -6 c-226 -7 -405 -24 -756 -73 -235 -33 -279 -43 -262 -61 4 -4 112
7 240 25 403 55 687 82 883 82 l92 0 15 -67 c8 -38 13 -70 11 -72 -2 -2 -76
-12 -165 -22 -89 -10 -241 -32 -338 -49 -211 -37 -682 -139 -696 -151 -6 -6
-6 -12 0 -18 6 -6 75 6 180 30 347 80 725 146 946 165 l76 6 7 -133 c19 -377
118 -776 266 -1070 99 -199 136 -239 222 -239 24 0 95 -15 159 -34 161 -47
247 -59 445 -58 l171 0 7 -59 c6 -64 16 -87 81 -194 24 -38 50 -96 59 -127 22
-78 39 -88 147 -88 48 0 140 -9 204 -20 139 -24 284 -26 391 -5 43 8 79 13 81
11 11 -10 24 -573 19 -775 -8 -278 -17 -358 -51 -415 -22 -38 -23 -44 -9 -58
14 -14 5 -25 -89 -112 -119 -110 -139 -142 -112 -182 29 -45 117 -78 217 -82
128 -6 224 26 336 110 62 46 103 106 132 193 12 36 33 74 50 90 28 27 30 34
30 99 0 85 33 353 61 491 21 107 68 221 94 231 29 12 55 -29 90 -138 44 -139
153 -625 161 -721 9 -90 17 -114 47 -128 18 -8 31 -31 52 -93 55 -164 113
-242 241 -326 176 -116 398 -146 444 -61 28 53 4 149 -62 245 -97 141 -116
173 -126 210 -10 33 -8 42 10 66 l20 28 -26 104 c-20 79 -29 155 -41 328 -20
311 -35 654 -35 827 0 134 1 145 18 138 174 -69 288 -89 447 -79 66 4 164 7
217 6 78 -1 101 2 117 16 20 17 96 198 146 350 40 121 34 209 -19 318 -52 105
-139 193 -216 220 -84 29 -312 27 -395 -4 -81 -30 -162 -87 -199 -141 -17 -24
-36 -50 -42 -59 -10 -13 -16 -13 -60 1 -45 15 -141 36 -236 52 -34 5 -41 12
-64 60 -15 30 -35 62 -46 71 -17 16 -18 15 -18 -39 l0 -56 -55 6 c-46 5 -55 3
-55 -10 0 -16 -12 -19 -145 -32 -33 -4 -139 -22 -235 -40 -96 -19 -204 -38
-240 -42 -62 -8 -66 -7 -87 17 l-21 25 -7 -28 -8 -29 -46 46 c-55 53 -132 94
-196 103 l-47 6 6 56 c4 31 2 76 -3 101 l-9 45 -1 -52 c-1 -52 -26 -133 -41
-133 -4 0 -27 11 -51 24 -78 43 -161 59 -314 59 -185 0 -296 -28 -388 -98 -25
-19 -48 -35 -50 -35 -2 0 -7 24 -10 53 -19 159 66 338 205 432 50 33 50 33 97
19 504 -159 1167 -207 1901 -138 520 49 818 123 1085 271 328 181 500 336 645
582 l44 74 150 -7 c545 -24 871 -67 1419 -187 209 -46 276 -54 251 -29 -17 17
-480 116 -743 160 -269 44 -771 90 -983 90 -43 0 -78 2 -78 4 0 2 9 24 19 49
19 44 19 44 81 50 99 11 740 8 895 -3 182 -14 360 -34 624 -71 148 -21 217
-27 224 -20 6 6 8 13 5 16 -7 8 -466 71 -647 90 -237 24 -621 37 -881 30 -129
-4 -244 -9 -254 -12 -16 -4 -18 -2 -11 13 25 58 78 277 97 399 30 192 33 612
5 750 -24 123 -61 248 -95 330 l-29 68 53 106 c68 132 123 274 162 416 75 267
66 312 -75 365 -202 76 -395 110 -616 110 -229 0 -413 -32 -530 -92 l-38 -19
-97 41 c-280 121 -614 203 -925 229 -144 12 -419 12 -607 0z m-710 -1979 c47
-6 185 -31 307 -55 354 -70 431 -80 668 -79 225 0 244 2 640 79 99 19 242 40
317 46 306 28 574 -40 735 -185 59 -54 140 -153 131 -161 -2 -2 -30 1 -63 6
-33 5 -219 13 -413 16 -468 7 -575 -3 -962 -89 -160 -35 -205 -42 -335 -45
-160 -5 -183 -2 -505 66 -171 36 -349 58 -550 66 -178 8 -606 -10 -720 -29
-46 -9 -86 -13 -89 -10 -2 2 17 36 44 74 109 160 295 266 535 303 52 8 179 7
260 -3z m2886 -874 c-79 -351 -466 -646 -986 -750 -270 -54 -706 -82 -1135
-73 -337 7 -512 31 -780 104 -459 125 -696 293 -817 579 -25 59 -64 211 -56
219 7 7 95 -149 137 -245 79 -179 162 -289 250 -328 30 -14 84 -17 342 -20
169 -2 386 1 483 7 156 8 182 12 233 35 118 55 180 129 239 287 61 165 91 193
206 193 53 0 74 -4 95 -20 32 -24 75 -97 99 -169 43 -128 115 -222 213 -274
77 -41 140 -48 516 -56 310 -7 518 3 578 29 76 31 166 152 237 316 17 41 60
126 93 187 56 102 62 110 65 81 2 -17 -4 -63 -12 -102z m-4273 51 c23 -56 22
-57 -18 -57 -22 0 -35 5 -35 13 0 7 -9 29 -19 50 l-19 37 37 0 c33 0 37 -4 54
-43z m55 -118 c61 -109 128 -196 236 -304 152 -152 302 -253 502 -340 74 -32
74 -33 50 -48 -21 -14 -28 -14 -72 0 -32 11 -88 16 -164 17 -131 1 -210 -19
-314 -80 -32 -19 -60 -33 -61 -32 -1 2 -15 27 -31 57 -19 35 -57 79 -109 125
-188 166 -232 229 -242 344 -5 55 -4 59 31 96 37 41 60 93 71 159 6 36 7 37
46 37 34 0 42 -4 57 -31z"/>
<path d="M4426 4749 c-61 -48 -13 -159 68 -159 85 0 133 104 72 156 -36 31
-102 33 -140 3z"/>
<path d="M4332 4464 c-61 -16 -92 -31 -92 -44 0 -19 19 -19 76 2 90 33 223 30
332 -7 62 -21 86 -25 94 -17 9 9 0 17 -33 31 -114 51 -267 65 -377 35z"/>
<path d="M3923 4033 c9 -2 25 -2 35 0 9 3 1 5 -18 5 -19 0 -27 -2 -17 -5z"/>
<path d="M3985 4035 c6 -2 60 -11 122 -19 188 -26 293 -69 332 -137 23 -41 35
-36 27 12 -14 90 -64 124 -196 133 -144 10 -296 16 -285 11z"/>
<path d="M4735 4026 c-122 -12 -163 -30 -190 -80 -9 -17 -15 -46 -13 -65 l3
-35 27 41 c28 42 112 93 153 93 12 0 25 4 31 10 5 5 79 17 164 25 85 9 160 18
165 20 23 8 -238 2 -340 -9z"/>
</g>
</svg>
